<mxfile host="app.diagrams.net" modified="2022-06-01T06:28:17.711Z" agent="5.0 (Windows NT 10.0; Win64; x64) AppleWebKit/537.36 (KHTML, like Gecko) Chrome/101.0.4951.67 Safari/537.36" etag="Qfc9wOKqdoVpa-x6nF7A" version="18.2.0" type="github">
  <diagram id="C5RBs43oDa-KdzZeNtuy" name="Page-1">
    <mxGraphModel dx="1422" dy="800" grid="1" gridSize="10" guides="1" tooltips="1" connect="1" arrows="1" fold="1" page="1" pageScale="1.2" pageWidth="1200" pageHeight="1600" math="0" shadow="0">
      <root>
        <mxCell id="WIyWlLk6GJQsqaUBKTNV-0" />
        <mxCell id="WIyWlLk6GJQsqaUBKTNV-1" parent="WIyWlLk6GJQsqaUBKTNV-0" />
        <mxCell id="EPeJ4Bs2GabPmA9W-RUg-5" value="" style="edgeStyle=orthogonalEdgeStyle;rounded=0;orthogonalLoop=1;jettySize=auto;html=1;" edge="1" parent="WIyWlLk6GJQsqaUBKTNV-1" source="EPeJ4Bs2GabPmA9W-RUg-0" target="EPeJ4Bs2GabPmA9W-RUg-4">
          <mxGeometry relative="1" as="geometry" />
        </mxCell>
        <mxCell id="EPeJ4Bs2GabPmA9W-RUg-13" value="" style="edgeStyle=orthogonalEdgeStyle;rounded=0;orthogonalLoop=1;jettySize=auto;html=1;" edge="1" parent="WIyWlLk6GJQsqaUBKTNV-1" source="EPeJ4Bs2GabPmA9W-RUg-0" target="EPeJ4Bs2GabPmA9W-RUg-12">
          <mxGeometry relative="1" as="geometry" />
        </mxCell>
        <mxCell id="EPeJ4Bs2GabPmA9W-RUg-0" value="新节点是text？" style="rhombus;whiteSpace=wrap;html=1;" vertex="1" parent="WIyWlLk6GJQsqaUBKTNV-1">
          <mxGeometry x="340" y="130" width="140" height="80" as="geometry" />
        </mxCell>
        <mxCell id="EPeJ4Bs2GabPmA9W-RUg-7" value="" style="edgeStyle=orthogonalEdgeStyle;rounded=0;orthogonalLoop=1;jettySize=auto;html=1;" edge="1" parent="WIyWlLk6GJQsqaUBKTNV-1" source="EPeJ4Bs2GabPmA9W-RUg-4" target="EPeJ4Bs2GabPmA9W-RUg-6">
          <mxGeometry relative="1" as="geometry" />
        </mxCell>
        <mxCell id="EPeJ4Bs2GabPmA9W-RUg-11" value="" style="edgeStyle=orthogonalEdgeStyle;rounded=0;orthogonalLoop=1;jettySize=auto;html=1;" edge="1" parent="WIyWlLk6GJQsqaUBKTNV-1" source="EPeJ4Bs2GabPmA9W-RUg-4" target="EPeJ4Bs2GabPmA9W-RUg-10">
          <mxGeometry relative="1" as="geometry" />
        </mxCell>
        <mxCell id="EPeJ4Bs2GabPmA9W-RUg-4" value="新节点text和就节点text相等？" style="rhombus;whiteSpace=wrap;html=1;" vertex="1" parent="WIyWlLk6GJQsqaUBKTNV-1">
          <mxGeometry x="590" y="130" width="220" height="80" as="geometry" />
        </mxCell>
        <mxCell id="EPeJ4Bs2GabPmA9W-RUg-6" value="不用比较" style="rounded=1;whiteSpace=wrap;html=1;" vertex="1" parent="WIyWlLk6GJQsqaUBKTNV-1">
          <mxGeometry x="940" y="140" width="120" height="60" as="geometry" />
        </mxCell>
        <mxCell id="EPeJ4Bs2GabPmA9W-RUg-10" value="替换" style="rounded=1;whiteSpace=wrap;html=1;" vertex="1" parent="WIyWlLk6GJQsqaUBKTNV-1">
          <mxGeometry x="640" y="300" width="120" height="60" as="geometry" />
        </mxCell>
        <mxCell id="EPeJ4Bs2GabPmA9W-RUg-24" value="" style="edgeStyle=orthogonalEdgeStyle;rounded=0;orthogonalLoop=1;jettySize=auto;html=1;" edge="1" parent="WIyWlLk6GJQsqaUBKTNV-1" source="EPeJ4Bs2GabPmA9W-RUg-12">
          <mxGeometry relative="1" as="geometry">
            <mxPoint x="260" y="330" as="targetPoint" />
          </mxGeometry>
        </mxCell>
        <mxCell id="EPeJ4Bs2GabPmA9W-RUg-35" style="edgeStyle=orthogonalEdgeStyle;rounded=0;orthogonalLoop=1;jettySize=auto;html=1;exitX=0.5;exitY=1;exitDx=0;exitDy=0;entryX=0.5;entryY=0;entryDx=0;entryDy=0;" edge="1" parent="WIyWlLk6GJQsqaUBKTNV-1" source="EPeJ4Bs2GabPmA9W-RUg-12">
          <mxGeometry relative="1" as="geometry">
            <mxPoint x="410" y="480" as="targetPoint" />
          </mxGeometry>
        </mxCell>
        <mxCell id="EPeJ4Bs2GabPmA9W-RUg-12" value="新节点children和旧节点children都非空" style="rhombus;whiteSpace=wrap;html=1;" vertex="1" parent="WIyWlLk6GJQsqaUBKTNV-1">
          <mxGeometry x="326.25" y="290" width="167.5" height="80" as="geometry" />
        </mxCell>
        <mxCell id="EPeJ4Bs2GabPmA9W-RUg-14" value="是" style="text;html=1;resizable=0;autosize=1;align=center;verticalAlign=middle;points=[];fillColor=none;strokeColor=none;rounded=0;" vertex="1" parent="WIyWlLk6GJQsqaUBKTNV-1">
          <mxGeometry x="515" y="150" width="30" height="20" as="geometry" />
        </mxCell>
        <mxCell id="EPeJ4Bs2GabPmA9W-RUg-15" value="否" style="text;html=1;resizable=0;autosize=1;align=center;verticalAlign=middle;points=[];fillColor=none;strokeColor=none;rounded=0;" vertex="1" parent="WIyWlLk6GJQsqaUBKTNV-1">
          <mxGeometry x="700" y="240" width="30" height="20" as="geometry" />
        </mxCell>
        <mxCell id="EPeJ4Bs2GabPmA9W-RUg-16" value="是" style="text;html=1;resizable=0;autosize=1;align=center;verticalAlign=middle;points=[];fillColor=none;strokeColor=none;rounded=0;" vertex="1" parent="WIyWlLk6GJQsqaUBKTNV-1">
          <mxGeometry x="850" y="150" width="30" height="20" as="geometry" />
        </mxCell>
        <mxCell id="EPeJ4Bs2GabPmA9W-RUg-30" value="否" style="text;html=1;resizable=0;autosize=1;align=center;verticalAlign=middle;points=[];fillColor=none;strokeColor=none;rounded=0;" vertex="1" parent="WIyWlLk6GJQsqaUBKTNV-1">
          <mxGeometry x="410" y="410" width="30" height="20" as="geometry" />
        </mxCell>
        <mxCell id="EPeJ4Bs2GabPmA9W-RUg-33" value="&lt;span style=&quot;&quot;&gt;updateChild&lt;/span&gt;" style="rounded=1;whiteSpace=wrap;html=1;" vertex="1" parent="WIyWlLk6GJQsqaUBKTNV-1">
          <mxGeometry x="140" y="300" width="120" height="60" as="geometry" />
        </mxCell>
        <mxCell id="EPeJ4Bs2GabPmA9W-RUg-34" value="否" style="text;html=1;resizable=0;autosize=1;align=center;verticalAlign=middle;points=[];fillColor=none;strokeColor=none;rounded=0;" vertex="1" parent="WIyWlLk6GJQsqaUBKTNV-1">
          <mxGeometry x="410" y="240" width="30" height="20" as="geometry" />
        </mxCell>
        <mxCell id="EPeJ4Bs2GabPmA9W-RUg-36" value="是" style="text;html=1;resizable=0;autosize=1;align=center;verticalAlign=middle;points=[];fillColor=none;strokeColor=none;rounded=0;" vertex="1" parent="WIyWlLk6GJQsqaUBKTNV-1">
          <mxGeometry x="290" y="310" width="30" height="20" as="geometry" />
        </mxCell>
        <mxCell id="EPeJ4Bs2GabPmA9W-RUg-40" value="" style="edgeStyle=orthogonalEdgeStyle;rounded=0;orthogonalLoop=1;jettySize=auto;html=1;" edge="1" parent="WIyWlLk6GJQsqaUBKTNV-1" source="EPeJ4Bs2GabPmA9W-RUg-38">
          <mxGeometry relative="1" as="geometry">
            <mxPoint x="265" y="520" as="targetPoint" />
          </mxGeometry>
        </mxCell>
        <mxCell id="EPeJ4Bs2GabPmA9W-RUg-44" value="" style="edgeStyle=orthogonalEdgeStyle;rounded=0;orthogonalLoop=1;jettySize=auto;html=1;" edge="1" parent="WIyWlLk6GJQsqaUBKTNV-1" source="EPeJ4Bs2GabPmA9W-RUg-38" target="EPeJ4Bs2GabPmA9W-RUg-43">
          <mxGeometry relative="1" as="geometry" />
        </mxCell>
        <mxCell id="EPeJ4Bs2GabPmA9W-RUg-38" value="&lt;span style=&quot;&quot;&gt;只有新节点children存在&lt;/span&gt;" style="rhombus;whiteSpace=wrap;html=1;" vertex="1" parent="WIyWlLk6GJQsqaUBKTNV-1">
          <mxGeometry x="345" y="480" width="130" height="80" as="geometry" />
        </mxCell>
        <mxCell id="EPeJ4Bs2GabPmA9W-RUg-41" value="是" style="text;html=1;resizable=0;autosize=1;align=center;verticalAlign=middle;points=[];fillColor=none;strokeColor=none;rounded=0;" vertex="1" parent="WIyWlLk6GJQsqaUBKTNV-1">
          <mxGeometry x="290" y="500" width="30" height="20" as="geometry" />
        </mxCell>
        <mxCell id="EPeJ4Bs2GabPmA9W-RUg-42" value="新增（如果旧节点text，置空）" style="rounded=1;whiteSpace=wrap;html=1;" vertex="1" parent="WIyWlLk6GJQsqaUBKTNV-1">
          <mxGeometry x="144" y="490" width="120" height="60" as="geometry" />
        </mxCell>
        <mxCell id="EPeJ4Bs2GabPmA9W-RUg-47" value="" style="edgeStyle=orthogonalEdgeStyle;rounded=0;orthogonalLoop=1;jettySize=auto;html=1;" edge="1" parent="WIyWlLk6GJQsqaUBKTNV-1" source="EPeJ4Bs2GabPmA9W-RUg-43" target="EPeJ4Bs2GabPmA9W-RUg-46">
          <mxGeometry relative="1" as="geometry" />
        </mxCell>
        <mxCell id="EPeJ4Bs2GabPmA9W-RUg-49" value="" style="edgeStyle=orthogonalEdgeStyle;rounded=0;orthogonalLoop=1;jettySize=auto;html=1;" edge="1" parent="WIyWlLk6GJQsqaUBKTNV-1" source="EPeJ4Bs2GabPmA9W-RUg-43" target="EPeJ4Bs2GabPmA9W-RUg-48">
          <mxGeometry relative="1" as="geometry" />
        </mxCell>
        <mxCell id="EPeJ4Bs2GabPmA9W-RUg-43" value="&lt;span style=&quot;&quot;&gt;只有旧节点children存在&lt;/span&gt;" style="rhombus;whiteSpace=wrap;html=1;" vertex="1" parent="WIyWlLk6GJQsqaUBKTNV-1">
          <mxGeometry x="345" y="640" width="130" height="80" as="geometry" />
        </mxCell>
        <mxCell id="EPeJ4Bs2GabPmA9W-RUg-45" value="否" style="text;html=1;resizable=0;autosize=1;align=center;verticalAlign=middle;points=[];fillColor=none;strokeColor=none;rounded=0;" vertex="1" parent="WIyWlLk6GJQsqaUBKTNV-1">
          <mxGeometry x="410" y="590" width="30" height="20" as="geometry" />
        </mxCell>
        <mxCell id="EPeJ4Bs2GabPmA9W-RUg-46" value="删除旧节点" style="rounded=1;whiteSpace=wrap;html=1;" vertex="1" parent="WIyWlLk6GJQsqaUBKTNV-1">
          <mxGeometry x="140" y="650" width="120" height="60" as="geometry" />
        </mxCell>
        <mxCell id="EPeJ4Bs2GabPmA9W-RUg-53" value="" style="edgeStyle=orthogonalEdgeStyle;rounded=0;orthogonalLoop=1;jettySize=auto;html=1;" edge="1" parent="WIyWlLk6GJQsqaUBKTNV-1" source="EPeJ4Bs2GabPmA9W-RUg-48" target="EPeJ4Bs2GabPmA9W-RUg-52">
          <mxGeometry relative="1" as="geometry" />
        </mxCell>
        <mxCell id="EPeJ4Bs2GabPmA9W-RUg-48" value="旧节点是text" style="rhombus;whiteSpace=wrap;html=1;" vertex="1" parent="WIyWlLk6GJQsqaUBKTNV-1">
          <mxGeometry x="345" y="800" width="130" height="80" as="geometry" />
        </mxCell>
        <mxCell id="EPeJ4Bs2GabPmA9W-RUg-50" value="是" style="text;html=1;resizable=0;autosize=1;align=center;verticalAlign=middle;points=[];fillColor=none;strokeColor=none;rounded=0;" vertex="1" parent="WIyWlLk6GJQsqaUBKTNV-1">
          <mxGeometry x="296.25" y="660" width="30" height="20" as="geometry" />
        </mxCell>
        <mxCell id="EPeJ4Bs2GabPmA9W-RUg-51" value="否" style="text;html=1;resizable=0;autosize=1;align=center;verticalAlign=middle;points=[];fillColor=none;strokeColor=none;rounded=0;" vertex="1" parent="WIyWlLk6GJQsqaUBKTNV-1">
          <mxGeometry x="410" y="750" width="30" height="20" as="geometry" />
        </mxCell>
        <mxCell id="EPeJ4Bs2GabPmA9W-RUg-52" value="置空" style="rounded=1;whiteSpace=wrap;html=1;" vertex="1" parent="WIyWlLk6GJQsqaUBKTNV-1">
          <mxGeometry x="140" y="810" width="120" height="60" as="geometry" />
        </mxCell>
      </root>
    </mxGraphModel>
  </diagram>
</mxfile>
